<svg width="41" height="60" viewBox="0 0 41 60" fill="none" xmlns="http://www.w3.org/2000/svg">
<g clip-path="url(#clip0)">
<path fill-rule="evenodd" clip-rule="evenodd" d="M18.6417 36.6792V38.3208H28.8255V36.6792H18.6417ZM33.8887 33.3396H18.6417V34.9811H33.8887V33.3396ZM18.6417 26.6604V28.3019H28.8255V26.6604H18.6417ZM18.6417 48.3396H28.8255V46.6981H18.6417V48.3396ZM37.2833 3.33962H28.8255V6.67925H37.2833V56.6604H3.39463V6.67925H11.8524V3.33962H3.39463C1.49594 3.33962 0 4.81132 0 6.67925V56.6604C0 58.5283 1.49594 60 3.39463 60H37.2833C39.182 60 40.678 58.5283 40.678 56.6604V6.67925C40.678 4.81132 39.1245 3.33962 37.2833 3.33962ZM27.0995 3.33962H23.7048C23.7048 1.4717 22.2089 0 20.3102 0C18.4115 0 16.9156 1.4717 16.9156 3.33962H13.521V8.32075H27.0995V3.33962V3.33962ZM20.3102 4.98113C19.3896 4.98113 18.6417 4.24528 18.6417 3.33962C18.6417 2.43396 19.3896 1.69811 20.3102 1.69811C21.2308 1.69811 21.9788 2.43396 21.9788 3.33962C22.0363 4.24528 21.2883 4.98113 20.3102 4.98113ZM33.8887 43.3585H18.6417V45H33.8887V43.3585ZM18.6417 16.6415V18.283H28.8255V16.6415H18.6417ZM15.132 31.6415C12.1976 33.1132 10.2989 37.5283 10.2989 37.5283L9.14823 35.3774L6.78925 36.7925C7.76736 37.1321 9.20576 38.2641 10.4716 39.7358C11.3346 38.2075 13.9813 35.0377 15.3046 34.7547C14.7292 33.6226 15.0169 32.717 15.132 31.6415ZM33.8887 23.3208H18.6417V24.9623H33.8887V23.3208ZM15.132 21.6792C12.1976 23.1509 10.2989 27.566 10.2989 27.566L9.14823 25.4151L6.78925 26.8302C7.76736 27.1698 9.20576 28.3019 10.4716 29.7736C11.3346 28.2453 13.9813 25.0755 15.3046 24.7925C14.7292 23.6604 15.0169 22.6981 15.132 21.6792ZM33.8887 13.3585H18.6417V15H33.8887V13.3585ZM15.132 11.6604C12.1401 13.1321 10.2989 17.5472 10.2989 17.5472L9.14823 15.3962L6.78925 16.8113C7.76736 17.1509 9.20576 18.283 10.4716 19.7547C11.3346 18.2264 13.9813 15.0566 15.3046 14.7736C14.7292 13.6415 15.0169 12.7358 15.132 11.6604ZM10.2989 47.5472L9.14823 45.3962L6.78925 46.8113C7.76736 47.1509 9.20576 48.283 10.4716 49.7547C11.3346 48.2264 13.9813 45.0566 15.3046 44.7736C14.7868 43.6415 15.0744 42.7358 15.1895 41.6604C12.1401 43.1321 10.2989 47.5472 10.2989 47.5472Z" fill="#0F5EBA"/>
</g>
<defs>
<clipPath id="clip0">
<rect width="40.678" height="60" fill="white"/>
</clipPath>
</defs>
</svg>
