<svg width="72" height="60" viewBox="0 0 72 60" fill="none" xmlns="http://www.w3.org/2000/svg">
<g clip-path="url(#clip0)">
<path fill-rule="evenodd" clip-rule="evenodd" d="M34.9215 34.2472C36.944 33.7753 38.6968 33.236 40.1125 32.8315C40.1799 32.0225 40.1125 31.2135 40.1125 30.4045C40.0451 29.5955 39.9777 28.7865 39.7754 27.9775C38.2923 27.7079 36.5395 27.5056 34.4496 27.3034C33.9777 25.7528 33.2361 24.3371 32.2923 23.0562C33.3709 21.236 34.2473 19.6854 34.9215 18.3371C33.8428 17.1236 32.6294 16.0449 31.281 15.1685C30.0676 16.0449 28.6518 17.1236 27.0339 18.4719C25.6181 17.7303 24.135 17.191 22.517 16.9888C22.0451 14.9663 21.5058 13.2135 21.1013 11.7978C20.2923 11.7303 19.4833 11.7978 18.6743 11.7978C17.8653 11.8652 17.0563 11.9326 16.2473 12.1348C15.9777 13.618 15.7754 15.3708 15.5732 17.4607C14.0226 17.9326 12.6069 18.6742 11.326 19.618C9.50576 18.5393 7.9552 17.6629 6.60689 16.9888C5.3934 18.0674 4.31475 19.2809 3.43835 20.6292C4.31475 21.8427 5.3934 23.2584 6.74172 24.8764C6.00015 26.2921 5.46082 27.7753 5.25857 29.3933C3.2361 29.8652 1.48329 30.4045 0.0675602 30.809C0.000144468 31.618 0.0675602 32.427 0.0675602 33.236C0.134976 34.0449 0.202392 34.8539 0.404639 35.6629C1.88779 35.9326 3.64059 36.1348 5.73048 36.3371C6.20239 37.8876 6.94397 39.3034 7.88779 40.5843C6.80913 42.4045 5.93273 43.9551 5.25857 45.3034C6.33722 46.5168 7.55071 47.5955 8.89902 48.4719C10.1125 47.5955 11.5282 46.5169 13.1462 45.1685C14.5619 45.9101 16.0451 46.4494 17.6631 46.6517C18.135 48.6742 18.6743 50.427 19.0788 51.8427C19.8878 51.9101 20.6968 51.8427 21.5058 51.8427C22.3148 51.7753 23.1237 51.7079 23.9327 51.5056C24.2024 50.0225 24.4046 48.2697 24.6069 46.1798C26.1574 45.7079 27.5732 44.9663 28.8541 44.0225C30.6743 45.1011 32.2249 45.9775 33.5732 46.6517C34.7867 45.573 35.8653 44.3595 36.7417 43.0112C35.8653 41.7977 34.7867 40.382 33.4383 38.764C34.1799 37.3483 34.6518 35.8652 34.9215 34.2472ZM20.5619 39.5056C16.3148 39.7753 12.6069 36.6067 12.3372 32.3595C12.0676 28.1124 15.2361 24.4045 19.4833 24.1348C23.7305 23.8652 27.4383 27.0337 27.708 31.2809C28.0451 35.4607 24.8766 39.1685 20.5619 39.5056ZM67.3485 43.8876C67.4833 42.4719 67.3485 41.0562 67.0114 39.7753C68.4945 38.6966 69.708 37.6854 70.6518 36.8764C70.1799 35.5955 69.5058 34.3146 68.6968 33.1685C67.4159 33.4382 65.9327 33.9101 64.1799 34.4494C63.3035 33.4382 62.2249 32.4944 61.0114 31.7528C61.281 29.9326 61.4159 28.382 61.5507 27.1011C60.944 26.8315 60.2698 26.5618 59.5957 26.3595C58.9215 26.1573 58.2473 25.9551 57.5732 25.8202C56.899 26.8989 56.1575 28.2472 55.281 29.9326C53.8653 29.7978 52.4496 29.9326 51.1687 30.2697C50.09 28.7865 49.0788 27.573 48.2698 26.6292C46.9889 27.1011 45.708 27.7753 44.5619 28.5843C44.8316 29.8652 45.3035 31.3483 45.8428 33.1011C44.8316 33.9775 43.8878 35.0562 43.1462 36.2697C41.326 36 39.7754 35.8652 38.4945 35.7303C38.2249 36.3371 37.9552 37.0112 37.753 37.6854C37.5507 38.3595 37.3485 39.0337 37.2136 39.7079C38.2923 40.382 39.6406 41.1236 41.326 42C41.1912 43.4157 41.326 44.8315 41.6631 46.1124C40.1799 47.191 38.9664 48.2022 38.0226 49.0112C38.4945 50.2921 39.1687 51.573 39.9777 52.7191C41.2586 52.4494 42.7417 51.9775 44.4945 51.4382C45.3709 52.4494 46.4496 53.3933 47.6631 54.1348C47.3934 55.9551 47.2586 57.5056 47.1237 58.7865C47.7305 59.0562 48.4046 59.3258 49.0788 59.5281C49.753 59.7303 50.4271 59.9326 51.1013 60.0674C51.7754 58.9888 52.517 57.6404 53.3934 55.9551C54.8091 56.0899 56.2249 55.9551 57.5058 55.618C58.5844 57.1011 59.5957 58.3146 60.4046 59.2584C61.6855 58.7865 62.9664 58.1124 64.1125 57.3034C63.8428 56.0225 63.3709 54.5393 62.8316 52.7865C63.8428 51.9101 64.7867 50.8315 65.5282 49.618C67.3485 49.8876 68.899 50.0225 70.1799 50.1573C70.4496 49.5506 70.7193 48.8764 70.9215 48.2022C71.1237 47.5281 71.326 46.8539 71.4608 46.1798C70.3822 45.4382 69.0339 44.6966 67.3485 43.8876ZM60.7417 44.8989C59.5957 48.4045 55.8204 50.3595 52.3148 49.2809C48.8091 48.1348 46.8541 44.3595 47.9327 40.8539C49.0788 37.3483 52.8541 35.3933 56.3597 36.4719C59.8653 37.618 61.8204 41.3933 60.7417 44.8989ZM36.0676 14.5618C36.2698 15.573 36.6069 16.5169 37.0788 17.3933C36.2698 18.4719 35.5957 19.3483 35.0563 20.1573C35.6631 20.9663 36.3372 21.7753 37.1462 22.4494C37.9552 21.9775 38.9664 21.4382 40.1125 20.6966C40.9215 21.236 41.8653 21.7079 42.8766 21.9775C43.0788 23.3258 43.2136 24.4045 43.4159 25.3483C43.8878 25.4157 44.4271 25.4831 44.9664 25.4831C45.5058 25.4831 45.9777 25.4831 46.517 25.4831C46.7867 24.6067 47.0563 23.4607 47.326 22.1798C48.3372 21.9775 49.281 21.6404 50.1575 21.1685C51.2361 21.9775 52.1125 22.6517 52.9215 23.191C53.7305 22.5843 54.5395 21.9101 55.2136 21.1011C54.7417 20.2921 54.2024 19.2809 53.4608 18.1348C54.0002 17.3258 54.4721 16.382 54.7417 15.3708C56.09 15.1685 57.1687 15.0337 58.1125 14.8315C58.1799 14.3595 58.2473 13.8202 58.2473 13.2809C58.2473 12.7416 58.2473 12.2697 58.2473 11.7303C57.3709 11.4607 56.2249 11.191 54.944 10.9213C54.7417 9.91011 54.4046 8.96629 53.9327 8.08989C54.7417 7.01124 55.4159 6.13483 55.9552 5.32584C55.3485 4.51685 54.6743 3.70786 53.8653 3.03371C53.0563 3.50562 52.0451 4.04494 50.899 4.78652C50.09 4.24719 49.1462 3.77528 48.135 3.50562C47.9327 2.1573 47.7979 1.07865 47.5957 0.134831C47.1237 0.0674157 46.5844 0 46.0451 0C45.5058 0 45.0339 0 44.4945 0C44.2249 0.876404 43.9552 2.02247 43.6855 3.30337C42.6743 3.50562 41.7305 3.8427 40.8541 4.31461C39.7754 3.50562 38.899 2.83146 38.09 2.29213C37.281 2.89888 36.4721 3.57303 35.7979 4.38202C36.2698 5.19101 36.8091 6.20225 37.5507 7.34831C37.0114 8.1573 36.5395 9.10112 36.2698 10.1124C34.9215 10.3146 33.8428 10.4494 32.899 10.6517C32.8316 11.1236 32.7642 11.6629 32.7642 12.2022C32.7642 12.7416 32.7642 13.2135 32.7642 13.7528C33.6406 14.0225 34.7867 14.2921 36.0676 14.5618ZM40.5844 12.5393C40.7192 9.8427 43.0114 7.75281 45.708 7.82022C48.4046 7.95506 50.4945 10.2472 50.4271 12.9438C50.2923 15.6404 48.0001 17.7303 45.3035 17.6629C42.5395 17.5281 40.4496 15.236 40.5844 12.5393Z" fill="#0F5EBA"/>
</g>
<defs>
<clipPath id="clip0">
<rect width="71.4607" height="60" fill="white"/>
</clipPath>
</defs>
</svg>
