<svg width="61" height="60" viewBox="0 0 61 60" fill="none" xmlns="http://www.w3.org/2000/svg">
<g clip-path="url(#clip0)">
<path fill-rule="evenodd" clip-rule="evenodd" d="M38.4703 0C26.5156 0 16.8272 9.68838 16.8272 21.5864C16.8272 25.8924 18.0737 29.915 20.2833 33.3144L0 53.5977L6.40227 60L26.6856 39.7167C30.085 41.9263 34.1077 43.2295 38.4703 43.2295C50.4249 43.2295 60.0567 33.5411 60.0567 21.6431C60.0567 9.68839 50.3683 0 38.4703 0ZM38.4136 38.4136C29.1218 38.4136 21.5864 30.8782 21.5864 21.5864C21.5864 12.2946 29.1218 4.75921 38.4136 4.75921C47.7054 4.75921 55.2408 12.2946 55.2408 21.5864C55.2408 30.8782 47.7054 38.4136 38.4136 38.4136ZM48.8385 29.5751V10.3683H44.0227V29.5751H40.7932V16.7705H35.9773V29.5751H32.7479V23.1728H27.932V29.5751H25.5524V30.3683H51.1615V29.5751H48.8385Z" fill="#0F5EBA"/>
</g>
<defs>
<clipPath id="clip0">
<rect width="60.0567" height="60" fill="white"/>
</clipPath>
</defs>
</svg>
