<svg width="49" height="60" viewBox="0 0 49 60" fill="none" xmlns="http://www.w3.org/2000/svg">
<path fill-rule="evenodd" clip-rule="evenodd" d="M34.1089 0L17.3635 4.58491V2.54717H0V60H17.3635V4.58491L32.1984 60L48.9438 55.4151L34.1089 0ZM8.65367 53.7736C5.90023 53.7736 3.70872 51.566 3.70872 48.7924C3.70872 46.0189 5.90023 43.8113 8.65367 43.8113C11.4071 43.8113 13.5986 46.0189 13.5986 48.7924C13.6548 51.5094 11.4071 53.7736 8.65367 53.7736ZM13.6548 17.5472H3.70872C3.0344 17.5472 2.47248 16.9811 2.47248 16.3019C2.47248 15.6226 3.0344 15.0566 3.70872 15.0566H13.5986C14.2729 15.0566 14.8349 15.6226 14.8349 16.3019C14.8911 16.9811 14.3291 17.5472 13.6548 17.5472ZM13.6548 10.0755H3.70872C3.0344 10.0755 2.47248 9.50943 2.47248 8.83019C2.47248 8.15094 3.0344 7.58491 3.70872 7.58491H13.5986C14.2729 7.58491 14.8349 8.15094 14.8349 8.83019C14.8349 9.50943 14.3291 10.0755 13.6548 10.0755ZM21.3532 9.96226C21.1846 9.28302 21.578 8.60377 22.2523 8.43396L31.805 5.83019C32.4794 5.66038 33.1537 6.0566 33.3223 6.73585C33.4908 7.41509 33.0975 8.09434 32.4232 8.26415L22.8704 10.8679C22.1961 10.9811 21.5218 10.5849 21.3532 9.96226ZM24.8372 18.0566C24.1628 18.2264 23.4885 17.8302 23.32 17.1509C23.1514 16.4717 23.5447 15.7925 24.219 15.6226L33.7718 13.0189C34.4461 12.8491 35.1204 13.2453 35.289 13.9245C35.4576 14.6038 35.0642 15.283 34.3899 15.4528L24.8372 18.0566ZM38.9977 51.6792C36.3567 52.4151 33.6594 50.8302 32.9289 48.1698C32.1984 45.5094 33.7718 42.7925 36.4128 42.0566C39.0539 41.3208 41.7512 42.9057 42.4817 45.566C43.2122 48.2264 41.6388 51 38.9977 51.6792Z" fill="#0F5EBA"/>
</svg>
