<svg width="46" height="60" viewBox="0 0 46 60" fill="none" xmlns="http://www.w3.org/2000/svg">
<g clip-path="url(#clip0)">
<path fill-rule="evenodd" clip-rule="evenodd" d="M36.1132 18.1698L37.7547 15.3396L34.4151 13.4151L32.7736 16.2453C30.9057 15.3396 28.8679 14.717 26.717 14.3774C29.0377 13.0755 30.6226 10.5849 30.6226 7.69811C30.6226 3.45283 27.2264 0 22.9811 0C18.7358 0 15.3396 3.45283 15.3396 7.64151C15.3396 10.5283 16.9245 13.0189 19.2453 14.3208C17.0943 14.6604 15.0566 15.3396 13.1887 16.1887L11.5472 13.3585L13.1887 12.3962L11.3208 9.11321L4.64151 12.9623L6.56604 16.3019L8.20755 15.3396L9.84906 18.1698C3.90566 22.3019 0 29.2075 0 37.0189C0 49.6981 10.3019 60 22.9811 60C35.6604 60 45.9623 49.6981 45.9623 37.0189C45.9623 29.2075 42.0566 22.3019 36.1132 18.1698ZM16.5849 7.64151C16.5849 4.13208 19.4151 1.24528 22.9811 1.24528C26.5472 1.24528 29.3774 4.07547 29.3774 7.64151C29.3774 10.4717 27.5094 12.9057 24.9057 13.7547V10.8679H26.8302V7.01887H19.1321V10.8679H21.0566V13.7547C18.4528 12.9623 16.5849 10.5283 16.5849 7.64151ZM22.9811 56.1509C12.3962 56.1509 3.84906 47.6038 3.84906 37.0189C3.84906 26.434 12.3962 17.8868 22.9811 17.8868C33.566 17.8868 42.1132 26.434 42.1132 37.0189C42.1132 47.6038 33.566 56.1509 22.9811 56.1509ZM22.9811 20.434V37.0189H39.566C39.566 27.8491 32.1509 20.434 22.9811 20.434ZM41.3208 12.9623L34.6981 9.11321L32.7736 12.4528L39.3962 16.3019L41.3208 12.9623Z" fill="#0F5EBA"/>
</g>
<defs>
<clipPath id="clip0">
<rect width="45.9623" height="60" fill="white"/>
</clipPath>
</defs>
</svg>
