<svg width="59" height="60" viewBox="0 0 59 60" fill="none" xmlns="http://www.w3.org/2000/svg">
<g clip-path="url(#clip0)">
<path fill-rule="evenodd" clip-rule="evenodd" d="M0 60H12.283V50.7736H0V60ZM46.1321 19.9811V60H58.4151V19.9811H46.1321ZM15.3962 60H27.6792V29.2075H15.3962V60ZM30.7925 60H43.0755V41.5472H30.7925V60ZM6.16981 40.0189C8.71698 40.0189 10.8113 37.9245 10.8113 35.3774C10.8113 34.1321 10.3019 32.9434 9.45283 32.0943L19.5283 17.9434C20.1509 18.2264 20.8302 18.3962 21.566 18.3962C22.7547 18.3962 23.8302 17.9434 24.6226 17.2075L32.8868 23.8302C32.5472 24.5094 32.3208 25.2453 32.3208 26.0377C32.3208 28.5849 34.4151 30.6792 36.9623 30.6792C39.5094 30.6792 41.6038 28.5849 41.6038 26.0377C41.6038 24.7925 41.0943 23.6038 40.2453 22.7547L50.3208 8.60377C50.9434 8.88679 51.6226 9.0566 52.3585 9.0566C54.9057 9.0566 57 6.96226 57 4.41509C57 1.86792 54.8491 0 52.3019 0C49.7547 0 47.6604 2.09434 47.6604 4.64151C47.6604 5.88679 48.1698 7.07547 49.0189 7.86792L38.9434 22.0189C38.3208 21.7358 37.6415 21.566 36.9057 21.566C35.717 21.566 34.6415 22.0189 33.8491 22.7547L25.5849 16.0755C25.9811 15.3962 26.1509 14.6604 26.1509 13.8113C26.1509 11.2642 24.0566 9.16981 21.5094 9.16981C18.9623 9.16981 16.8679 11.2642 16.8679 13.8113C16.8679 15.0566 17.3774 16.2453 18.2264 17.0943L8.15094 31.2453C7.5283 30.9623 6.84906 30.7925 6.11321 30.7925C3.56604 30.7925 1.4717 32.8868 1.4717 35.434C1.5283 37.9245 3.62264 40.0189 6.16981 40.0189ZM52.3019 1.5283C54 1.5283 55.3585 2.88679 55.3585 4.58491C55.3585 6.28302 54 7.64151 52.3019 7.64151C52.1321 7.64151 51.9057 7.64151 51.7358 7.58491C51 7.4717 50.3774 7.07547 49.9245 6.50943C49.8113 6.39623 49.7547 6.22641 49.6415 6.11321C49.6415 6.11321 49.6415 6.0566 49.5849 6.0566C49.5283 5.9434 49.4151 5.77358 49.4151 5.66038V5.60377C49.3585 5.43396 49.3019 5.32075 49.3019 5.15094V5.09434C49.2453 4.98113 49.2453 4.81132 49.2453 4.64151C49.2453 2.9434 50.6038 1.5283 52.3019 1.5283ZM33.8491 25.8113C33.9057 25.4717 33.9623 25.1887 34.0755 24.9057C34.1321 24.7925 34.1887 24.6792 34.2453 24.566C34.2453 24.566 34.2453 24.566 34.2453 24.5094C34.4717 24.1698 34.6981 23.8868 35.0377 23.6604C35.5472 23.2641 36.1698 23.0377 36.9057 23.0377C37.0755 23.0377 37.3019 23.0377 37.4717 23.0943C38.2075 23.2075 38.8302 23.6038 39.283 24.1132C39.3962 24.2264 39.5094 24.3962 39.566 24.5094V24.566C39.6226 24.6792 39.7358 24.8491 39.7925 25.0189V25.0755C39.8491 25.2453 39.9057 25.3585 39.9057 25.5283V25.5849C39.9057 25.7547 39.9623 25.9245 39.9623 26.0943C39.9623 27.7925 38.6038 29.1509 36.9057 29.1509C35.2075 29.1509 33.8491 27.7925 33.8491 26.0943C33.8491 26.0377 33.8491 25.9245 33.8491 25.8113ZM21.566 10.7547C23.2641 10.7547 24.6226 12.1132 24.6226 13.8113C24.6226 13.9245 24.6226 14.0377 24.6226 14.1509V14.2075C24.6226 14.3208 24.6226 14.3774 24.566 14.4906C24.5094 14.717 24.4528 14.8868 24.3962 15.0566C24.1698 15.5094 23.8302 15.9623 23.434 16.2453C23.2075 16.4151 22.9245 16.5849 22.5849 16.6981C22.5849 16.6981 22.5849 16.6981 22.5283 16.6981C22.3585 16.7547 22.2453 16.7547 22.0755 16.8113H22.0189C21.8491 16.8113 21.7358 16.8679 21.566 16.8679C20.7736 16.8679 20.0943 16.5849 19.5283 16.1321C19.4717 16.0755 19.3585 15.9623 19.3019 15.9057C19.2453 15.8491 19.1887 15.7358 19.0755 15.6792C18.9057 15.4528 18.7358 15.1698 18.6792 14.8868C18.6792 14.8868 18.6792 14.8868 18.6792 14.8302C18.6226 14.6604 18.566 14.4906 18.566 14.3774V14.3208C18.566 14.1509 18.5094 13.9811 18.5094 13.8113C18.4528 12.1698 19.8113 10.7547 21.566 10.7547ZM6.16981 32.3208C6.33962 32.3208 6.56604 32.3208 6.73585 32.3774C6.90566 32.434 7.07547 32.4906 7.24528 32.5472C7.86792 32.7736 8.43396 33.283 8.77358 33.8491V33.9057C8.83019 34.0189 8.9434 34.1887 9 34.3585V34.4151C9.0566 34.5849 9.11321 34.6981 9.11321 34.8679V34.9245C9.11321 35.0943 9.16981 35.2641 9.16981 35.434C9.16981 37.1321 7.81132 38.4906 6.11321 38.4906C4.41509 38.4906 3.0566 37.1321 3.0566 35.434C3.0566 33.6792 4.4717 32.3208 6.16981 32.3208Z" fill="#0F5EBA"/>
</g>
<defs>
<clipPath id="clip0">
<rect width="58.4717" height="60" fill="white"/>
</clipPath>
</defs>
</svg>
