<svg width="95" height="60" viewBox="0 0 95 60" fill="none" xmlns="http://www.w3.org/2000/svg">
<g clip-path="url(#clip0)">
<path d="M78.7556 37.2444L62.6667 28C62.5778 27.9111 61.5111 27.2 61.1556 26.9333C57.4222 24.4444 50.1333 20.8 46.6667 19.1111C45.4222 18.4889 44.8 18.1333 44.4444 17.9556C44 18.0444 43.2889 18.2222 42.7556 18.3111C42.3111 18.4 41.8667 18.5778 41.4222 18.5778C41.2444 18.7556 40.8 19.2 40.1778 20.0889C39.5556 20.9778 39.8222 20.6222 39.4667 21.2444L39.3778 21.4222C37.7778 23.8222 33.9556 24.8889 31.9111 24.8889C30.6667 24.8889 28.5333 24.8889 27.5556 23.2C27.2889 22.7556 26.7556 21.5111 27.6444 20C28 19.3778 29.7778 16.3556 31.7333 13.2444C32.0889 12.7111 32.3556 12.1778 32.7111 11.7333C31.5556 11.5556 30.4889 11.4667 29.6889 11.2C27.2889 10.6667 25.6889 9.77778 24 8.8L12.8 28.2667L12.2667 29.2444C12.6222 30.0444 13.8667 31.5556 15.4667 33.3333L16 32.7111C17.0667 31.3778 18.6667 30.5778 20.3556 30.5778C21.6 30.5778 22.8444 31.0222 23.8222 31.7333C24.7111 32.4444 25.3333 33.3333 25.6889 34.4L26.6667 33.1556C27.7333 31.8222 29.3333 31.0222 31.0222 31.0222C32.2667 31.0222 33.5111 31.4667 34.4889 32.1778C36.5333 33.7778 37.1556 36.5333 36.1778 38.7556C37.3333 38.7556 38.4889 39.2 39.3778 39.9111C41.4222 41.5111 42.0444 44.2667 41.0667 46.4889C42.2222 46.4889 43.3778 46.9333 44.2667 47.6444C45.2444 48.4444 45.9556 49.5111 46.2222 50.7556C46.2222 50.8444 46.2222 50.9333 46.3111 51.0222C46.3111 51.1111 46.3111 51.2 46.4 51.2889C46.4 51.3778 46.4 51.4667 46.4 51.5556V51.6444C46.4 51.7333 46.4 51.7333 46.4 51.8222V51.9111C46.4 52 46.4 52 46.4 52.0889V52.1778C46.4 52.2667 46.4 52.2667 46.4 52.3556V52.4444V52.5333V52.6222V52.7111C46.4 52.8 46.4 52.8889 46.3111 53.0667C46.3111 53.0667 46.3111 53.0667 46.3111 53.1556C46.3111 53.2444 46.3111 53.2444 46.3111 53.3333V53.4222C46.3111 53.5111 46.3111 53.5111 46.2222 53.6C46.2222 53.6 46.2222 53.6 46.2222 53.6889C46.2222 53.7778 46.2222 53.7778 46.1333 53.8667C46.1333 53.8667 46.1333 53.8667 46.1333 53.9556C46.1333 54.0444 46.0444 54.0444 46.0444 54.1333C45.9556 54.4 45.7778 54.6667 45.6 54.9333C45.5111 55.1111 45.5111 55.0222 45.3333 55.2L46.5778 55.8222L52.1778 59.1111C53.6889 60 55.5556 59.4667 56.4444 57.9556C57.3333 56.4444 56.8 54.5778 55.2889 53.6889L51.0222 51.2C49.5111 50.3111 50.4889 48 52.2667 49.0667L59.2889 53.1556C60.8 54.0444 62.6667 53.5111 63.5556 52C64.4444 50.4889 63.9111 48.6222 62.4 47.7333L55.2889 43.6444C54.0444 42.9333 55.2889 40.7111 56.4444 41.5111L67.0222 47.6444C68.5333 48.5333 70.4 48 71.2889 46.4889C72.1778 44.9778 71.6444 43.1111 70.1333 42.2222L59.3778 36C57.9556 35.2 59.3778 33.1556 60.4444 33.7778L75.5556 42.5778C77.0667 43.4667 78.9333 42.9333 79.8222 41.4222C80.7111 40 80.2667 38.1333 78.7556 37.2444ZM15.4667 0L0 26.8444L8 31.4667L23.4667 4.62222L15.4667 0ZM42.7556 49.6C41.4222 48.5333 39.4667 48.8 38.4 50.1333L34.5778 55.0222C33.5111 56.3556 33.7778 58.3111 35.1111 59.3778C36.4444 60.4444 38.4 60.1778 39.4667 58.8444L43.2889 53.9556C44.3556 52.6222 44.0889 50.6667 42.7556 49.6ZM37.8667 41.7778C36.5333 40.7111 34.5778 40.9778 33.5111 42.3111L27.8222 49.6C26.7556 50.9333 27.0222 52.8889 28.3556 53.9556C29.6889 55.0222 31.6444 54.7556 32.7111 53.4222L38.4 46.1333C39.3778 44.8 39.2 42.8444 37.8667 41.7778ZM32.8889 34.0444C31.5556 32.9778 29.6 33.2444 28.5333 34.5778L20.8889 44.3556C19.8222 45.6889 20.0889 47.6444 21.4222 48.7111C22.7556 49.7778 24.7111 49.5111 25.7778 48.1778L33.4222 38.4C34.4889 37.0667 34.2222 35.1111 32.8889 34.0444ZM22.3111 33.6C20.9778 32.5333 19.0222 32.8 17.9556 34.1333L14.1333 39.0222C13.0667 40.3556 13.3333 42.3111 14.6667 43.3778C16 44.4444 17.9556 44.1778 19.0222 42.8444L22.8444 37.9556C23.8222 36.6222 23.6444 34.6667 22.3111 33.6ZM78.7556 0.711111L70.7556 5.33333L86.2222 32.1778L94.2222 27.5556L78.7556 0.711111ZM62.8444 9.68889C59.5556 9.33333 55.3778 7.37778 53.7778 7.37778C52.1778 7.37778 40.0889 7.11111 37.8667 8.88889C35.6444 10.6667 30.3111 20 29.6889 21.1556C29.0667 22.3111 30.3111 22.4 31.8222 22.4C33.3333 22.4 36.2667 21.5111 37.2444 20.0889C38.2222 18.5778 39.4667 16.3556 40.6222 16.2667C41.7778 16.1778 44.4444 15.1111 45.2444 15.6444C45.9556 16.1778 60 23.2889 64.1778 26.1333C68.3556 28.9778 76.0889 33.1556 77.5111 33.9556C79.2 34.9333 81.5111 31.7333 82.2222 30.1333L70.6667 10.0444C69.0667 10.2222 65.8667 10.0444 62.8444 9.68889Z" fill="#0F5EBA"/>
</g>
<defs>
<clipPath id="clip0">
<rect width="94.2222" height="60" fill="white"/>
</clipPath>
</defs>
</svg>
