<svg width="86" height="60" viewBox="0 0 86 60" fill="none" xmlns="http://www.w3.org/2000/svg">
<path fill-rule="evenodd" clip-rule="evenodd" d="M0 60V0H86V60H0ZM84.2151 1.79348H1.78491V58.288H84.2962V1.79348H84.2151ZM10.5472 54.7011H5.27359V44.1033H10.5472V54.7011ZM19.3094 54.7011H14.0358V40.5978H19.3094V54.7011ZM8.11321 21.8478C5.19245 18.913 4.5434 14.5924 6.16604 11.0054L10.3849 13.4511C9.81698 15.163 10.2226 17.038 11.5208 18.4239C13.1434 20.0543 15.7396 20.2989 17.6057 19.0761L21.0132 22.5815C17.2 25.6793 11.6019 25.4348 8.11321 21.8478ZM19.634 15.9783H24.5019C24.3396 17.8533 23.6094 19.6467 22.3925 21.1141L18.9849 17.6087C19.2283 17.1196 19.4717 16.5489 19.634 15.9783ZM28.0717 54.7011H22.7981V45.8967H28.0717V54.7011ZM36.834 54.7011H31.5604V31.7935H36.834V54.7011ZM39.7547 20.788L43.5679 9.29348L47.3811 13.125L50.4642 10.0272L54.683 7.90761L58.0094 14.5109L60.9302 10.1087L65.1491 5.86957L69.0434 13.6957L72.5321 17.2011L75.4528 21.6033L78.4547 15.5707L79.6717 16.1413L75.6151 24.212L71.3962 18.0163L67.8264 14.4293L64.6623 8.15217L61.8226 11.0054L57.6849 17.2011L53.9528 9.70109L51.1132 11.087L47.2189 15L43.9736 11.7391L40.7283 21.4402L37.0774 25.1087L36.1849 24.212L39.7547 20.788ZM45.5962 54.7011H40.3226V38.8043H45.5962V54.7011ZM54.4396 54.7011H49.166V47.6087H54.4396V54.7011ZM63.2019 54.7011H57.9283V37.0924H63.2019V54.7011ZM71.9641 54.7011H66.6906V42.3913H71.9641V54.7011ZM80.7264 54.7011H75.4528V33.5054H80.7264V54.7011ZM18.3358 11.5761C18.2547 11.4946 18.1736 11.413 18.0925 11.413L20.5264 7.17391C20.9321 7.5 21.3377 7.82609 21.7434 8.15217C23.366 9.78261 24.3396 11.9022 24.5019 14.0217H19.634C19.4717 13.125 18.9849 12.3098 18.3358 11.5761ZM11.5208 11.5761C11.4396 11.6576 11.3585 11.7391 11.3585 11.8207L7.13962 9.375C7.46415 8.96739 7.78868 8.55978 8.11321 8.15217C11.034 5.21739 15.334 4.56522 18.9038 6.19565L16.4698 10.4348C14.766 9.86413 12.8189 10.1902 11.5208 11.5761Z" fill="#0F5EBA"/>
</svg>
