<svg width="62" height="33" viewBox="0 0 62 33" fill="none" xmlns="http://www.w3.org/2000/svg">
<path fill-rule="evenodd" clip-rule="evenodd" d="M33.7491 24.0216H48.7226C48.7226 21.5838 50.6528 19.5622 53.0509 19.5027V7.49189C50.6528 7.43243 48.7226 5.47027 48.7226 2.97297H33.7491C37.3755 4.99459 39.8321 8.97838 39.8321 13.4973C39.8321 18.0162 37.3755 21.9405 33.7491 24.0216ZM45.7396 10.5243C47.3774 10.5243 48.6642 11.8919 48.6642 13.4973C48.6642 15.1622 47.3189 16.4703 45.7396 16.4703C44.1604 16.4703 42.8151 15.1027 42.8151 13.4973C42.8151 11.8324 44.1604 10.5243 45.7396 10.5243ZM25.1509 13.2C25.5019 13.4973 26.2623 13.973 27.2566 14.6865C27.9 15.1027 28.2509 15.4595 28.3679 15.7568C28.4849 16.1135 28.5434 16.6486 28.5434 17.4216C28.5434 17.7189 28.4849 17.9568 28.3679 18.1351C28.2509 18.3135 28.0755 18.373 27.8415 18.373C27.5491 18.373 27.3736 18.2541 27.3151 18.0162C27.2566 17.7784 27.1981 17.1838 27.1981 16.2919V15.4595H23.8057V16.1135C23.8057 17.6595 24.1566 18.7297 24.8585 19.3838C25.5604 19.9784 26.3208 20.3351 27.2566 20.4541V21.8216H28.8358V20.5135C30.0057 20.3351 30.883 19.9189 31.4679 19.2054C32.0528 18.4919 32.3453 17.5405 32.3453 16.2919C32.3453 15.5189 32.2283 14.8649 31.9943 14.3297C31.7604 13.7946 31.5264 13.4378 31.1755 13.1405C30.883 12.8432 30.2396 12.427 29.4208 11.8919C28.4264 11.2378 27.783 10.8216 27.5491 10.6432C27.3151 10.4054 27.2566 10.0486 27.2566 9.51351C27.2566 9.21622 27.3151 8.91892 27.4321 8.8C27.5491 8.62162 27.666 8.56216 27.9 8.56216C28.134 8.56216 28.3094 8.68108 28.4264 8.85946C28.4849 9.03784 28.5434 9.45405 28.5434 10.0486V10.6432H31.9359C31.9359 10.3459 31.9943 10.1081 31.9943 9.98919C31.9943 8.97838 31.7604 8.14595 31.234 7.61081C30.7076 7.01622 29.9472 6.65946 28.8358 6.54054V5.35135H27.2566V6.48108C26.0868 6.6 25.2094 6.95676 24.683 7.55135C24.0981 8.14595 23.8057 8.97838 23.8057 9.98919C23.8057 10.7027 23.9226 11.3568 24.2151 11.8919C24.4491 12.427 24.8 12.9027 25.1509 13.2ZM59.0755 1.48649H57.6132V28.5405H1.46226V30.027H59.0755V1.48649ZM56.0925 0H0V26.9946H56.0925V0ZM54.6302 25.5081H1.46226V1.48649H54.6302V25.5081ZM7.36981 24.0216H22.3434C18.717 21.9405 16.2604 18.0162 16.2604 13.4973C16.2604 8.97838 18.717 5.05405 22.3434 2.97297H7.36981C7.36981 5.47027 5.38113 7.49189 2.92453 7.49189V19.5027C5.38113 19.5027 7.36981 21.5243 7.36981 24.0216ZM10.3528 10.5243C11.9906 10.5243 13.2774 11.8919 13.2774 13.4973C13.2774 15.1622 11.9321 16.4703 10.3528 16.4703C8.77359 16.4703 7.4283 15.1027 7.4283 13.4973C7.36981 11.8324 8.7151 10.5243 10.3528 10.5243ZM60.5377 2.97297V31.5135H2.92453V33H62V2.97297H60.5377Z" fill="#0F5EBA"/>
</svg>
