<?xml version="1.0" encoding="utf-8"?>
<!-- Generator: Adobe Illustrator 23.0.0, SVG Export Plug-In . SVG Version: 6.00 Build 0)  -->
<svg version="1.1" id="Layer_1" xmlns="http://www.w3.org/2000/svg" xmlns:xlink="http://www.w3.org/1999/xlink" x="0px" y="0px"
	 viewBox="0 0 16 16" style="enable-background:new 0 0 16 16;" xml:space="preserve">
<style type="text/css">
	.st0{fill:#2D5DA6;}
	.st1{fill:#3C3C3B;}
</style>
<g>
	<path class="st0" d="M2.5,8.8c-0.7,0-1.3,0.6-1.3,1.3s0.6,1.3,1.3,1.3s1.3-0.6,1.3-1.3S3.2,8.8,2.5,8.8z M2.5,10.4
		c-0.2,0-0.3-0.2-0.3-0.3s0.2-0.3,0.3-0.3c0.2,0,0.3,0.2,0.3,0.3S2.7,10.4,2.5,10.4z"/>
</g>
<g>
	<path class="st0" d="M5,8.8c-0.7,0-1.3,0.6-1.3,1.3s0.6,1.3,1.3,1.3s1.3-0.6,1.3-1.3S5.7,8.8,5,8.8z M5,10.4
		c-0.2,0-0.3-0.2-0.3-0.3S4.8,9.8,5,9.8c0.2,0,0.3,0.2,0.3,0.3S5.2,10.4,5,10.4z"/>
</g>
<g>
	<path class="st0" d="M7.5,8.8c-0.7,0-1.3,0.6-1.3,1.3s0.6,1.3,1.3,1.3s1.3-0.6,1.3-1.3S8.2,8.8,7.5,8.8z M7.5,10.4
		c-0.2,0-0.3-0.2-0.3-0.3s0.2-0.3,0.3-0.3c0.2,0,0.3,0.2,0.3,0.3S7.7,10.4,7.5,10.4z"/>
</g>
<g>
	<path class="st0" d="M10,8.8c-0.7,0-1.3,0.6-1.3,1.3s0.6,1.3,1.3,1.3s1.3-0.6,1.3-1.3S10.7,8.8,10,8.8z M10,10.4
		c-0.2,0-0.3-0.2-0.3-0.3S9.8,9.8,10,9.8s0.3,0.2,0.3,0.3S10.2,10.4,10,10.4z"/>
</g>
<path class="st1" d="M14.9,5.9H0.1C0,5.9,0,5.9,0,6C0,6,0,6.1,0.1,6.1h2.3v2.8h0V6.1H5v2.8h0V6.1h2.5v2.8h0V6.1H10v2.8h0V6.1h2.6
	L14,8.5l0,0l-1.3-2.4h2.2C14.9,6.1,15,6,15,6C15,5.9,14.9,5.9,14.9,5.9z"/>
<g>
	<path class="st1" d="M0.3,5c0-0.2,0.1-0.4,0.3-0.4c0.1,0,0.2,0.1,0.3,0.1C1,4.7,1.1,4.6,1.2,4.6c0.2,0,0.3,0.1,0.3,0.4v0.6H1.3V5
		c0-0.1-0.1-0.2-0.2-0.2C1.1,4.8,1,4.9,1,5v0.6H0.8V5c0-0.1-0.1-0.2-0.2-0.2S0.5,4.9,0.5,5v0.6H0.3L0.3,5L0.3,5z"/>
	<path class="st1" d="M1.9,5.2L1.6,4.7h0.2L2,5l0.2-0.4h0.2L2.1,5.2v0.4H1.9V5.2z"/>
	<path class="st1" d="M3,4.7h0.4c0.2,0,0.4,0.1,0.4,0.3c0,0.2-0.1,0.3-0.4,0.3H3.2v0.3H3L3,4.7L3,4.7z M3.4,5.1
		c0.1,0,0.2-0.1,0.2-0.2c0-0.1,0-0.1-0.2-0.1H3.2v0.3L3.4,5.1L3.4,5.1z"/>
	<path class="st1" d="M3.8,4.7h0.4c0.2,0,0.3,0.1,0.3,0.3c0,0.1-0.1,0.3-0.2,0.3l0.2,0.3H4.4L4.2,5.3H4v0.3H3.8L3.8,4.7L3.8,4.7z
		 M4.2,5.1c0.1,0,0.2-0.1,0.2-0.1s0-0.1-0.2-0.1H4v0.3H4.2z"/>
	<path class="st1" d="M4.7,5.1c0-0.3,0.2-0.5,0.5-0.5c0.3,0,0.5,0.2,0.5,0.5S5.5,5.6,5.2,5.6C4.9,5.6,4.7,5.4,4.7,5.1z M5.5,5.1
		c0-0.2-0.1-0.3-0.3-0.3C5,4.8,4.9,5,4.9,5.1c0,0.2,0.1,0.3,0.3,0.3C5.4,5.5,5.5,5.3,5.5,5.1z"/>
	<path class="st1" d="M5.8,5.3L5.8,5.3l0.2,0v0C6,5.4,6,5.5,6.1,5.5c0.1,0,0.2-0.1,0.2-0.2V4.7h0.2v0.6c0,0.2-0.1,0.4-0.4,0.4
		C5.9,5.6,5.8,5.5,5.8,5.3z"/>
	<path class="st1" d="M6.7,4.7h0.7v0.2H6.9V5h0.4v0.2H6.9v0.2h0.5v0.2H6.7V4.7z"/>
	<path class="st1" d="M7.5,5.1c0-0.3,0.2-0.5,0.5-0.5c0.2,0,0.4,0.1,0.5,0.4H8.3c0-0.1-0.2-0.2-0.3-0.2C7.8,4.8,7.7,5,7.7,5.1
		S7.8,5.5,8,5.5c0.1,0,0.2-0.1,0.3-0.2h0.2C8.4,5.5,8.2,5.6,8,5.6C7.7,5.6,7.5,5.4,7.5,5.1z"/>
	<path class="st1" d="M8.8,4.8H8.5V4.7h0.8v0.2H9v0.8H8.8V4.8z"/>
	<path class="st1" d="M9.8,5.1c0-0.3,0.2-0.5,0.5-0.5s0.5,0.2,0.5,0.5s-0.2,0.5-0.5,0.5C10,5.6,9.8,5.4,9.8,5.1z M10.6,5.1
		c0-0.2-0.1-0.3-0.3-0.3c-0.2,0-0.3,0.1-0.3,0.3c0,0.2,0.1,0.3,0.3,0.3S10.6,5.3,10.6,5.1z"/>
	<path class="st1" d="M10.9,4.7h0.7v0.2h-0.5V5h0.4v0.2h-0.4v0.4h-0.2L10.9,4.7L10.9,4.7z"/>
	<path class="st1" d="M11.7,4.7h0.7v0.2h-0.5V5h0.4v0.2h-0.4v0.4h-0.2L11.7,4.7L11.7,4.7z"/>
	<path class="st1" d="M12.5,4.7h0.2v1h-0.2L12.5,4.7L12.5,4.7z"/>
	<path class="st1" d="M12.9,5.1c0-0.3,0.2-0.5,0.5-0.5c0.2,0,0.4,0.1,0.5,0.4h-0.2c0-0.1-0.2-0.2-0.3-0.2C13.2,4.8,13,5,13,5.1
		s0.1,0.3,0.3,0.3c0.1,0,0.2-0.1,0.3-0.2h0.2c-0.1,0.2-0.2,0.4-0.5,0.4C13.1,5.6,12.9,5.4,12.9,5.1z"/>
	<path class="st1" d="M14,4.7h0.7v0.2h-0.5V5h0.4v0.2h-0.4v0.2h0.5v0.2H14V4.7z"/>
</g>
<g>
	<g>
		<g>
			<g>
				<path class="st0" d="M14.6,11c-0.5,0-0.9-0.2-1.2-0.7c-0.4-0.6-0.2-1.5,0.5-1.9c0.6-0.4,1.5-0.2,1.9,0.5l0,0
					c0.4,0.6,0.2,1.5-0.5,1.9C15.1,10.9,14.9,11,14.6,11z M14.6,8.5c-0.2,0-0.4,0.1-0.6,0.2c-0.6,0.3-0.7,1-0.4,1.6
					c0.3,0.6,1,0.7,1.6,0.4s0.7-1,0.4-1.6C15.4,8.7,15,8.5,14.6,8.5z"/>
			</g>
		</g>
	</g>
	<g>
		<circle class="st0" cx="14.6" cy="9.6" r="0.3"/>
	</g>
</g>
</svg>
