<svg width="60" height="60" viewBox="0 0 60 60" fill="none" xmlns="http://www.w3.org/2000/svg">
<g clip-path="url(#clip0)">
<path d="M51.6226 47.434C51.6226 45.9057 50.3774 44.6604 48.8491 44.6604H39.0566C37.5283 44.6604 36.283 45.9057 36.283 47.434C36.283 48.9623 37.5283 50.2075 39.0566 50.2075H48.8491C50.3774 50.2075 51.6226 48.9623 51.6226 47.434ZM47.434 4.18868H46.0189V16.9245C46.5283 17.0377 46.9811 17.2642 47.434 17.4906V4.18868ZM47.434 55.8113V53.0377H46.0189V55.8113H47.434ZM34.8679 51.1132V55.8113H36.283V52.2453C35.7736 51.9623 35.2642 51.566 34.8679 51.1132ZM33.5094 36.283H11.1509C9.62264 36.283 8.37736 37.5283 8.37736 39.0566C8.37736 40.5849 9.62264 41.8868 11.1509 41.8868H33.4528C34.9811 41.8868 36.2264 40.6415 36.2264 39.1132C36.2264 37.5849 35.0377 36.283 33.5094 36.283ZM34.8679 4.18868V16.7547H36.283V4.18868H34.8679ZM20.9434 22.3019C20.9434 23.8302 22.1887 25.0755 23.717 25.0755H44.6604C46.1887 25.0755 47.434 23.8302 47.434 22.3019C47.434 20.7736 46.1887 19.5283 44.6604 19.5283H23.717C22.1887 19.5283 20.9434 20.7736 20.9434 22.3019ZM12.566 4.18868V8.37736H13.9811V4.18868H12.566ZM23.717 4.18868V16.7547H25.1321V4.18868H23.717ZM0 13.9811C0 15.5094 1.24528 16.7547 2.77359 16.7547H18.1132C19.6415 16.7547 20.8868 15.5094 20.8868 13.9811C20.8868 12.4528 19.6415 11.2075 18.1132 11.2075H2.77359C1.24528 11.1509 0 12.3962 0 13.9811ZM25.1321 55.8113V48.6226C24.283 47.5472 23.717 46.1887 23.717 44.6604V55.8113H25.1321ZM46.0189 34.4151V41.8868H47.434V35.5472C46.9245 35.2075 46.4717 34.8679 46.0189 34.4151ZM57.2264 54.3962C57.2264 55.9245 55.9811 57.1698 54.4528 57.1698H5.60377C4.07547 57.1698 2.83019 55.9245 2.83019 54.3962V19.5283C1.81132 19.5283 0.849057 19.2453 0.0566038 18.7925V54.4528C0.0566038 57.5094 2.54717 60.0566 5.66038 60.0566H54.5094C57.566 60.0566 60.1132 57.566 60.1132 54.4528V35.5472C59.2642 36 58.3585 36.283 57.3396 36.283V54.3962H57.2264ZM54.3962 0H5.60377C2.49057 0 0 2.49057 0 5.60377V9.16981C0.849057 8.71698 1.75472 8.43396 2.77359 8.43396V5.60377C2.77359 4.07547 4.01887 2.83019 5.54717 2.83019H54.3962C55.9245 2.83019 57.1698 4.07547 57.1698 5.60377V25.1321C58.1887 25.1321 59.1509 25.4151 59.9434 25.8679V5.60377C60 2.49057 57.5094 0 54.3962 0ZM37.6981 27.9057C37.6981 27.9057 37.6415 29.3208 38.6038 30.3396C39.283 31.0189 40.3019 31.4151 41.4906 31.4151H42.9057V32.5472L46.0189 30.7358L42.9057 28.8679V30H41.4906C40.4151 30 39.6792 29.6604 39.283 28.9811C38.9434 28.4717 39 27.9057 39 27.9057H37.6981ZM57.2264 27.9057H50.2076C48.6792 27.9057 47.434 29.1509 47.434 30.6792C47.434 32.2075 48.6792 33.4528 50.2076 33.4528H57.1698C58.6981 33.4528 59.9434 32.2075 59.9434 30.6792C60 29.1509 58.7547 27.9057 57.2264 27.9057ZM13.9811 55.8113V44.6604H12.566V55.8113H13.9811ZM13.9811 33.5094V25.7547C13.4717 25.6981 13.0189 25.5849 12.566 25.4151V33.4528H13.9811V33.5094ZM11.1509 19.5283C11.1509 19.5283 11.0943 20.9434 12.0566 21.9623C12.7358 22.6415 13.7547 23.0377 14.9434 23.0377H16.4151V24.1698L19.5283 22.3585L16.4151 20.4906V21.6226H15C13.9245 21.6226 13.1887 21.283 12.7925 20.6038C12.4528 20.0943 12.5094 19.5283 12.5094 19.5283H11.1509ZM36.283 31.8679C35.434 30.7925 34.8679 29.434 34.8679 27.9057V33.6792C35.3774 33.7924 35.8302 34.0189 36.283 34.2453V31.8679ZM23.717 27.9057V33.5094H25.1321V27.9057H23.717ZM26.4906 44.6604C26.4906 44.6604 26.434 46.0755 27.3962 47.0943C28.0755 47.7736 29.0943 48.1698 30.283 48.1698H31.6981V49.3019L34.8113 47.4906L31.6981 45.6792V46.8113H30.283C29.2076 46.8113 28.4717 46.4717 28.0755 45.7925C27.7358 45.283 27.7925 44.717 27.7925 44.717H26.4906V44.6604Z" fill="#0F5EBA"/>
</g>
<defs>
<clipPath id="clip0">
<rect width="60" height="60" fill="white"/>
</clipPath>
</defs>
</svg>
