<svg width="41" height="60" viewBox="0 0 41 60" fill="none" xmlns="http://www.w3.org/2000/svg">
<path fill-rule="evenodd" clip-rule="evenodd" d="M36.7358 60H3.33962C1.4717 60 0 58.5283 0 56.6604V6.67924C0 4.81132 1.4717 3.33962 3.33962 3.33962H11.717V6.67924H3.33962V56.6604H36.7358V6.67924H28.4151V3.33962H36.7924C38.6604 3.33962 40.1321 4.81132 40.1321 6.67924V56.6604C40.0755 58.5283 38.6038 60 36.7358 60ZM33.3962 13.3585H6.67924V11.717H33.3962V13.3585ZM6.67924 15H33.3962V16.6415H6.67924V15ZM33.3962 19.9811H6.67924V18.3396H33.3962V19.9811ZM6.67924 21.6792H33.3962V23.3208H6.67924V21.6792ZM6.67924 25.0189H20.0377V26.6604H6.67924V25.0189ZM32.5472 53.3208H28.6415V35.0943H32.5472V53.3208ZM25.5283 53.3208H21.6226V44.9434H25.5283V53.3208ZM18.4528 53.3208H14.5472V39.3396H18.4528V53.3208ZM11.434 53.434H7.5283V49.1887H11.434V53.434ZM9.50943 41.6604C9.84906 41.6604 10.1321 41.717 10.4151 41.8868L15.0566 35.434C14.6604 35.0943 14.434 34.5283 14.434 33.9623C14.434 32.7736 15.3962 31.8679 16.5283 31.8679C17.6604 31.8679 18.6226 32.8302 18.6226 33.9623C18.6226 34.3585 18.5094 34.6981 18.3396 34.9811L22.1321 37.9811C22.5283 37.6415 22.9811 37.4717 23.5472 37.4717C23.8868 37.4717 24.1698 37.5283 24.4528 37.6981L29.0377 31.2453C28.6415 30.8491 28.4151 30.3396 28.4151 29.7736C28.4151 28.5849 29.3774 27.6792 30.5094 27.6792C31.6981 27.6792 32.6038 28.6415 32.6038 29.7736C32.6038 30.9623 31.6415 31.8679 30.5094 31.8679C30.1698 31.8679 29.8868 31.8113 29.6038 31.6415L25.0189 38.0943C25.4151 38.4906 25.6415 39 25.6415 39.566C25.6415 40.7547 24.6792 41.6604 23.5472 41.6604C22.3585 41.6604 21.4528 40.6981 21.4528 39.566C21.4528 39.1698 21.566 38.8302 21.7358 38.5472L17.9434 35.5472C17.5472 35.8868 17.0943 36.0566 16.5283 36.0566C16.1887 36.0566 15.9057 36 15.6226 35.8302L10.9811 42.283C11.3774 42.6792 11.6038 43.1887 11.6038 43.7547C11.6038 44.9434 10.6415 45.8491 9.50943 45.8491C8.32075 45.8491 7.41509 44.8868 7.41509 43.7547C7.35849 42.6226 8.32075 41.6604 9.50943 41.6604ZM29.2075 29.8302C29.2075 29.8868 29.2075 29.8868 29.2075 29.8868C29.2075 29.8868 29.2075 29.8868 29.2075 29.9434C29.2075 29.9434 29.2075 29.9434 29.2075 30C29.2075 30 29.2075 30 29.2075 30.0566C29.2075 30.0566 29.2075 30.0566 29.2075 30.1132C29.2075 30.1132 29.2075 30.1132 29.2075 30.1698V30.2264C29.2075 30.2264 29.2075 30.2264 29.2075 30.283C29.2075 30.283 29.2075 30.283 29.2075 30.3396C29.2075 30.3396 29.2075 30.3396 29.2075 30.3962C29.2075 30.3962 29.2075 30.3962 29.2075 30.4528C29.2075 30.4528 29.2075 30.4528 29.2075 30.5094C29.2075 30.5094 29.2075 30.5094 29.2075 30.566C29.2075 30.566 29.2075 30.566 29.2075 30.6226C29.2075 30.6226 29.2075 30.6226 29.2075 30.6792C29.3774 30.8491 29.6038 31.0189 29.8302 31.1321H29.8868H29.9434H30H30.0566C30.0566 31.1321 30.0566 31.1321 30.1132 31.1321C30.1132 31.1321 30.1132 31.1321 30.1698 31.1321C30.1698 31.1321 30.1698 31.1321 30.2264 31.1321H30.283C31.0755 31.1321 31.6981 30.5094 31.6981 29.717C31.6981 28.9245 31.0755 28.3019 30.283 28.3019C29.4906 28.3019 28.8679 28.9245 28.8679 29.717C29.2075 29.7736 29.2075 29.7736 29.2075 29.8302ZM23.5472 40.9811C24.3396 40.9811 24.9623 40.3585 24.9623 39.566V39.5094V39.4528C24.9623 39.4528 24.9623 39.4528 24.9623 39.3962C24.9623 39.3962 24.9623 39.3962 24.9623 39.3396C24.9623 39.3396 24.9623 39.3396 24.9623 39.283C24.9623 39.283 24.9623 39.283 24.9623 39.2264C24.9623 39.2264 24.9623 39.2264 24.9623 39.1698C24.9623 39.1698 24.9623 39.1698 24.9623 39.1132C24.9623 39.1132 24.9623 39.1132 24.9623 39.0566C24.9623 39.0566 24.9623 39.0566 24.9623 39C24.9623 39 24.9623 39 24.9623 38.9434C24.9623 38.8868 24.9623 38.8868 24.9057 38.8302C24.9057 38.8302 24.9057 38.8302 24.9057 38.7736C24.9057 38.7736 24.9057 38.7736 24.9057 38.717C24.9057 38.717 24.9057 38.717 24.9057 38.6604C24.9057 38.6604 24.9057 38.6604 24.9057 38.6038C24.9057 38.6038 24.9057 38.6038 24.9057 38.5472C24.9057 38.5472 24.9057 38.5472 24.8491 38.4906C24.6792 38.3208 24.5094 38.1509 24.283 38.0943H24.2264H24.1698H24.1132H24.0566C24.0566 38.0943 24.0566 38.0943 24 38.0943C24 38.0943 24 38.0943 23.9434 38.0943C23.9434 38.0943 23.9434 38.0943 23.8868 38.0943C23.8868 38.0943 23.8868 38.0943 23.8302 38.0943C23.8302 38.0943 23.8302 38.0943 23.7736 38.0943H23.717C23.6604 38.0943 23.5472 38.0943 23.4906 38.0943C23.434 38.0943 23.434 38.0943 23.3774 38.0943C23.3208 38.0943 23.2075 38.1509 23.1509 38.1509C23.0943 38.2075 23.0377 38.2075 22.9811 38.2641C22.9245 38.2641 22.9245 38.3208 22.8679 38.3208L22.8113 38.3774L22.7547 38.434C22.6981 38.4906 22.6981 38.4906 22.6415 38.5472L22.5849 38.6038C22.5283 38.6604 22.4717 38.7736 22.4717 38.8302V38.8868C22.4717 38.9434 22.4151 39 22.4151 39V39.0566V39.1132C22.4151 39.1698 22.4151 39.283 22.4151 39.3396C22.1321 40.3585 22.7547 40.9811 23.5472 40.9811ZM15.1132 34.0189V34.0755V34.1321C15.1132 34.1321 15.1132 34.1321 15.1132 34.1887C15.1132 34.1887 15.1132 34.1887 15.1132 34.2453C15.1132 34.3019 15.1132 34.3019 15.1132 34.3585C15.1132 34.3585 15.1132 34.3585 15.1132 34.4151C15.1132 34.4717 15.1132 34.4717 15.1698 34.5283V34.5849C15.1698 34.6415 15.2264 34.6981 15.283 34.7547C15.283 34.7547 15.283 34.8113 15.3396 34.8113C15.3962 34.8679 15.4528 34.9245 15.4528 34.9811C15.5094 35.0377 15.566 35.0943 15.6226 35.0943C15.7925 35.2075 15.9623 35.2641 16.1321 35.3208H16.1887C16.2453 35.3208 16.3585 35.3208 16.4151 35.3208C16.4717 35.3208 16.4717 35.3208 16.5283 35.3208C16.5849 35.3208 16.5849 35.3208 16.6415 35.3208C16.6981 35.3208 16.6981 35.3208 16.7547 35.3208C16.8113 35.3208 16.8113 35.3208 16.8679 35.3208C16.9245 35.3208 16.9245 35.3208 16.9811 35.2641C17.0377 35.2641 17.0377 35.2641 17.0377 35.2075C17.0943 35.2075 17.0943 35.1509 17.0943 35.1509L17.1509 35.0943C17.3208 34.9245 17.4906 34.7547 17.6038 34.5283V34.4717V34.4151V34.3585V34.3019V34.2453V34.1887V34.1321V34.0755C17.6038 33.283 16.9811 32.6604 16.1887 32.6604C15.3962 32.6604 14.7736 33.283 14.7736 34.0755C15.1132 33.9623 15.1132 34.0189 15.1132 34.0189ZM9.50943 45.1698C10.3019 45.1698 10.9245 44.5472 10.9245 43.7547V43.6981V43.6415C10.9245 43.6415 10.9245 43.6415 10.9245 43.5849C10.9245 43.5849 10.9245 43.5849 10.9245 43.5283C10.9245 43.5283 10.9245 43.5283 10.9245 43.4717C10.9245 43.4717 10.9245 43.4717 10.9245 43.4151C10.9245 43.4151 10.9245 43.4151 10.9245 43.3585C10.9245 43.3585 10.9245 43.3585 10.9245 43.3019C10.9245 43.3019 10.9245 43.3019 10.9245 43.2453C10.9245 43.2453 10.9245 43.2453 10.9245 43.1887C10.9245 43.1887 10.9245 43.1887 10.9245 43.1321C10.9245 43.1321 10.9245 43.1321 10.9245 43.0755C10.9245 43.0189 10.9245 43.0189 10.8679 42.9623C10.8679 42.9623 10.8679 42.9623 10.8679 42.9057C10.8679 42.9057 10.8679 42.9057 10.8679 42.8491C10.8679 42.8491 10.8679 42.8491 10.8679 42.7924C10.8679 42.7924 10.8679 42.7924 10.8679 42.7358C10.8679 42.7358 10.8679 42.7358 10.8679 42.6792C10.8679 42.6792 10.8679 42.6792 10.8113 42.6226C10.6415 42.4528 10.4151 42.283 10.1887 42.1698H10.1321H10.0755H10.0189H9.96226C9.96226 42.1698 9.96226 42.1698 9.90566 42.1698C9.90566 42.1698 9.90566 42.1698 9.84906 42.1698C9.84906 42.1698 9.84906 42.1698 9.79245 42.1698C9.79245 42.1698 9.79245 42.1698 9.73585 42.1698H9.67924C8.88679 42.1698 8.26415 42.7924 8.26415 43.5849C8.26415 44.3774 8.71698 45.1698 9.50943 45.1698ZM13.3585 3.33962H16.6981C16.6981 1.4717 18.1698 0 20.0377 0C21.9057 0 23.3774 1.4717 23.3774 3.33962H26.717V8.32075H13.3585V3.33962ZM20.0377 4.98113C20.9434 4.98113 21.7358 4.24528 21.7358 3.33962C21.7358 2.43396 21 1.69811 20.0377 1.69811C19.1321 1.69811 18.3396 2.43396 18.3396 3.33962C18.3962 4.24528 19.1321 4.98113 20.0377 4.98113Z" fill="#0F5EBA"/>
</svg>
