<svg width="42" height="60" viewBox="0 0 42 60" fill="none" xmlns="http://www.w3.org/2000/svg">
<path fill-rule="evenodd" clip-rule="evenodd" d="M8.2268 20.0205H26.4742C28.3299 20.0205 28.3299 17.3101 26.4742 17.3101H8.2268C6.37113 17.2485 6.37113 20.0205 8.2268 20.0205ZM41.0722 9.97947L31.9175 0.924025C31.0515 0 30.1237 0 29.1959 0C28.268 0 0.927835 0 0.927835 0C0.927835 0 0 0 0 0.924025C0 1.84805 0 59.076 0 59.076C0 59.076 0 60 0.927835 60H41.0722C42 60 42 59.076 42 59.076C42 59.076 42 13.614 42 12.7515C42 11.8275 42 10.9035 41.0722 9.97947ZM31.9175 3.6961L38.3505 9.97947H31.9175V3.6961ZM40.1443 58.1519H1.85567V1.84805H30.1237V10.9651C30.1237 10.9651 30.1237 11.8891 31.0515 11.8891C31.9794 11.8891 40.2062 11.8891 40.2062 11.8891V58.1519H40.1443ZM33.7732 35.4209H8.2268C6.37113 35.4209 6.37113 38.1314 8.2268 38.1314H33.7732C35.567 38.193 35.567 35.4209 33.7732 35.4209ZM8.2268 29.076H33.7732C35.6289 29.076 35.6289 26.3655 33.7732 26.3655H8.2268C6.37113 26.3655 6.37113 29.076 8.2268 29.076ZM26.9072 49.2197C26.4742 49.2197 26.1031 49.2813 25.8557 49.4661C25.6701 49.6509 24.8041 50.3285 24.6804 50.3901C24.5567 50.4517 24.4948 50.5133 24.3711 50.3285C24.2474 50.1437 23.3814 48.8501 22.8866 48.4189C22.3918 47.9877 21.8969 47.4333 20.7835 47.4949C19.6701 47.5565 18.3711 48.1109 17.9381 48.5421C17.5052 48.9117 16.3299 49.8973 15.8969 50.1437C15.4639 50.3901 15.3402 50.3901 15.1546 50.4517C14.9691 50.5133 14.8454 50.4517 14.8454 50.1437C14.8454 49.8357 14.9691 49.3429 15.0928 48.9733C15.1546 48.6037 15.7113 46.078 15.6495 45.2772C15.6495 44.4764 15.5258 42.0739 13.5464 42.0123C11.5052 41.8891 10.1443 43.9836 9.52577 44.846C8.90722 45.7084 7.79381 47.2485 7.36082 49.2197C6.92783 51.191 6.92783 51.6838 6.92783 52.4846C6.92783 53.2854 8.35052 53.4086 8.41237 52.5462C8.47423 51.6838 8.47423 50.3285 8.96907 48.9117C9.52577 47.4949 10.3299 45.8316 11.3814 44.846C12.433 43.8604 13.0515 43.4292 13.5464 43.4908C14.1031 43.4908 14.1649 44.3532 14.2268 44.7844C14.2268 45.2772 14.0412 47.0637 13.8557 47.8645C13.6701 48.6653 13.4227 49.5277 13.4227 50.2053C13.4227 50.8214 13.5464 51.3142 13.9175 51.6838C14.2887 51.9918 14.5361 52.0534 14.9691 52.0534C15.4021 52.0534 16.0206 51.8686 16.6392 51.499C17.2577 51.1294 18.3711 50.1437 18.9897 49.7741C19.6082 49.3429 20.1031 49.0349 20.6598 49.0349C21.2784 49.0965 21.7732 49.4045 22.1443 49.8973C22.4536 50.3901 22.9485 51.2526 23.3196 51.5606C23.6907 51.8686 24.0619 52.1766 24.5567 52.115C25.0515 52.115 25.3608 51.9918 25.6082 51.7454C25.8557 51.499 26.3505 51.0678 26.4742 50.9446C26.5979 50.8214 26.7835 50.8214 26.9072 50.8214C27.0309 50.8214 27.5258 50.5749 27.5876 50.1437C27.5876 49.5893 27.3402 49.2813 26.9072 49.2197Z" fill="#0F5EBA"/>
</svg>
