<svg width="66" height="60" viewBox="0 0 66 60" fill="none" xmlns="http://www.w3.org/2000/svg">
<path fill-rule="evenodd" clip-rule="evenodd" d="M33.6345 35.4209H8.19302C6.34497 35.4209 6.34497 38.1314 8.19302 38.1314H33.6345C35.4825 38.193 35.4825 35.4209 33.6345 35.4209ZM39.9795 58.1519H1.84805V1.84805H30.0616V10.9651C30.0616 10.9651 30.0616 11.8891 30.9856 11.8891C31.9096 11.8891 40.1027 11.8891 40.1027 11.8891V30.924L41.9507 29.076V12.7515C41.9507 11.8275 41.9507 10.9035 41.0267 10.0411C39.9795 9.11704 32.7105 1.84805 31.848 0.924025C30.924 0 30 0 29.076 0C28.2136 0 0.924025 0 0.924025 0C0.924025 0 0 0 0 0.924025C0 1.84805 0 59.076 0 59.076C0 59.076 0 60 0.924025 60H40.9035C41.8275 60 41.8275 59.076 41.8275 59.076C41.8275 59.076 41.8275 50.5749 41.8275 40.8419L39.9795 42.6899V58.1519ZM31.848 3.6961L38.193 9.97947H31.848V3.6961ZM33.6345 26.3655H8.19302C6.34497 26.3655 6.34497 29.076 8.19302 29.076H33.6345C35.4825 29.076 35.4825 26.3655 33.6345 26.3655ZM8.19302 20.0205H26.3655C28.2136 20.0205 28.2136 17.3101 26.3655 17.3101H8.19302C6.34497 17.2485 6.34497 20.0205 8.19302 20.0205ZM64.0657 19.3429C63.5113 19.8973 62.4025 21.0062 62.4025 21.0062L61.2936 19.8973C61.6016 19.5893 62.0945 19.0965 62.9569 18.2341C65.1129 16.078 64.0657 14.9692 62.9569 13.8604C61.848 12.7515 60.8008 11.7043 58.5832 13.8604C56.3655 16.0164 56.4271 16.0164 56.4271 16.0164L39.0554 33.5113L43.3676 37.8234L60.2464 20.9446L61.3552 22.0534C61.3552 22.0534 54.8255 28.5832 54.271 29.1376C53.7166 29.692 54.8255 30.7392 55.3799 30.2464C55.9343 29.692 64.6201 21.0062 65.1745 20.4517C65.6674 19.8973 64.6201 18.7885 64.0657 19.3429ZM27.4743 48.9733C27.3511 49.0965 27.2279 49.2197 27.1047 49.3429C27.0431 49.2813 26.9199 49.2813 26.7967 49.2813C26.3655 49.2813 25.9959 49.3429 25.7495 49.5277C25.5647 49.7125 24.7023 50.3901 24.5791 50.4517C24.4559 50.5133 24.3942 50.5749 24.271 50.3901C24.1478 50.2053 23.2854 48.9117 22.7926 48.4805C22.2998 48.0493 21.807 47.4949 20.6982 47.5565C19.5893 47.6181 18.2957 48.1725 17.8645 48.6037C17.4333 48.9733 16.2628 49.9589 15.8316 50.2053C15.4004 50.4517 15.2772 50.4517 15.0924 50.5133C14.9076 50.5749 14.7844 50.5133 14.7844 50.2053C14.7844 49.8973 14.9076 49.4045 15.0308 49.0349C15.154 48.6653 15.6468 46.1396 15.5852 45.3388C15.5852 44.538 15.462 42.1355 13.4908 42.0739C11.4579 41.9507 10.1027 44.0452 9.48665 44.9076C8.87064 45.77 7.76181 47.3101 7.3306 49.2813C6.89938 51.2526 6.89938 51.7454 6.89938 52.5462C6.89938 53.347 8.31622 53.4702 8.37782 52.6078C8.37782 51.807 8.43942 50.3901 8.93224 48.9733C9.48665 47.5565 10.2875 45.8932 11.3347 44.9076C12.3819 43.922 12.9979 43.4908 13.4908 43.5524C14.0452 43.5524 14.1068 44.4148 14.1684 44.846C14.1684 45.3388 13.9836 47.1253 13.7988 47.9261C13.614 48.7269 13.3676 49.5893 13.3676 50.2669C13.3676 50.883 13.4908 51.3758 13.8604 51.7454C14.23 52.0534 14.4764 52.115 14.9076 52.115C15.3388 52.115 15.9548 51.9302 16.5708 51.5606C17.1869 51.191 18.2957 50.2053 18.9117 49.8357C19.5277 49.4045 20.0205 49.0965 20.5749 49.0965C21.191 49.1581 21.6838 49.4661 22.0534 49.9589C22.3614 50.4517 22.8542 51.3142 23.2238 51.6222C23.5934 51.9302 23.963 52.2382 24.4559 52.1766C24.9487 52.1766 25.2567 52.0534 25.5031 51.807C25.7495 51.5606 26.2423 51.1294 26.3655 51.0062C26.4887 50.883 26.6735 50.883 26.7967 50.883C26.9199 50.883 27.4127 50.6365 27.4743 50.2053C27.4743 50.1437 27.4743 50.0821 27.4743 50.0205C27.6591 49.8357 27.7823 49.7125 27.9671 49.5277C29.7536 49.7741 36.7762 44.5996 42.8747 38.501C40.7187 36.345 40.7187 36.345 38.5626 34.1889C32.4025 40.1643 27.2895 47.1869 27.4743 48.9733Z" fill="#0F5EBA"/>
</svg>
