<svg width="30" height="30" viewBox="0 0 30 30" fill="none" xmlns="http://www.w3.org/2000/svg">
<g clip-path="url(#clip03)">
<path d="M13.0227 5.72728L14.5227 10.4318L12.4773 11.9318L13.7727 16.2955L16.2955 18.9546C16.2955 18.9546 18.1364 18.6136 18.2045 18.5455C18.2727 18.4773 18.8182 18.2046 18.8182 18.2046L20.25 18.4773L22.4318 21L22.0227 23.3864L16.7727 25.0227L10.2273 17.7955L7.5 9.20455L11.0455 5.59091L13.0227 5.72728Z" fill="#0F5EBA"/>
<path d="M22.5 2.04546L22.4318 1.97728C22.4318 1.97728 22.3636 1.97728 22.3636 1.9091C22.2955 1.9091 22.2955 1.84091 22.2273 1.84091L22.0909 1.77273C21.75 1.56819 21.3409 1.36364 21 1.22728C21 1.22728 20.9318 1.22728 20.9318 1.1591C20.9318 1.1591 20.8636 1.1591 20.8636 1.09091C20.4545 0.954551 20.1136 0.818187 19.7045 0.681824C19.5 0.681824 19.3636 0.681824 19.2273 0.613642L19.0909 0.54546C18.8182 0.477278 18.6136 0.409096 18.3409 0.340915H18.2727C18.0682 0.272733 17.9318 0.272733 17.7955 0.204551C17.4545 0.136369 17.0455 0.0681874 16.7045 0.0681874C16.5682 0.0681874 16.4318 0.0681874 16.2955 5.55068e-06H16.1591C15.8182 5.55068e-06 15.5455 -0.0681763 15.2045 -0.0681763C15.1364 -0.0681763 15.1364 -0.0681763 15.0682 -0.0681763C15 -0.0681763 15 -0.0681763 14.9318 -0.0681763H14.8636H14.7955H14.7273C14.5909 -0.0681763 14.4545 -0.0681763 14.3182 -0.0681763C14.25 -0.0681763 14.1818 -0.0681763 14.0455 -0.0681763C13.9773 -0.0681763 13.9091 -0.0681763 13.8409 -0.0681763C13.6364 -0.0681763 13.5 -0.0681763 13.2955 5.55068e-06C13.2273 5.55068e-06 13.2273 5.55068e-06 13.1591 5.55068e-06C13.0909 5.55068e-06 13.0909 5.55068e-06 13.0227 5.55068e-06C10.0227 0.409096 7.22727 1.63637 4.97727 3.68182C2.72727 5.6591 1.15909 8.25001 0.409091 11.1818V11.25C0.409091 11.3182 0.340909 11.3864 0.340909 11.4546C0.272727 11.7273 0.204545 12.0682 0.136364 12.3409C0.0681818 12.5455 0.0681818 12.8182 0.0681818 13.0227C0.0681818 13.2273 0 13.4318 0 13.7727C0 13.8409 0 13.9091 0 13.9773C0 14.0455 0 14.1136 0 14.1818C0 14.25 0 14.3182 0 14.3864C0 14.4546 0 14.5227 0 14.5909C0 14.6591 0 14.7273 0 14.7955C0 14.8636 0 14.9318 0 14.9318C0 15 0 15.0682 0 15.1364C0 15.2046 0 15.2727 0 15.3409C0 15.6136 0 15.8864 0.0681818 16.1591C0.0681818 16.3636 0.136364 16.5682 0.136364 16.8409C0.204545 17.1136 0.204545 17.4545 0.272727 17.7273C0.272727 17.9318 0.340909 18.0682 0.409091 18.2727C0.477273 18.6136 0.545455 18.9546 0.681818 19.2273C0.681818 19.4318 0.681818 19.5682 0.75 19.7046C0.886364 20.0455 1.02273 20.3864 1.09091 20.7273C1.15909 20.7955 1.15909 20.8636 1.22727 21V21.0682C1.36364 21.4773 1.56818 21.75 1.70455 22.0909C1.77273 22.1591 1.77273 22.2273 1.84091 22.2955L1.90909 22.3636C2.11364 22.7045 2.31818 23.0455 2.52273 23.3182C2.59091 23.3864 2.59091 23.4545 2.65909 23.5227L2.72727 23.5909C3 23.9318 3.20455 24.2045 3.40909 24.4773C3.40909 24.5455 3.47727 24.5455 3.54545 24.6136C3.61364 24.6818 3.61364 24.6818 3.68182 24.75C3.75 24.8182 3.81818 24.8864 3.88636 24.9545C4.02273 25.0909 4.09091 25.2273 4.22727 25.3636L4.29545 25.4318C4.36364 25.4318 4.36364 25.5 4.43182 25.5C4.5 25.5682 4.5 25.5682 4.56818 25.6364C4.63636 25.7045 4.63636 25.7045 4.70455 25.7727C4.84091 26.0455 5.11364 26.3182 5.45455 26.5909H5.52273C8.25 28.8409 11.5227 30 15 30C17.5227 30 21.4091 30 23.1818 27.8182C24 26.8636 23.5909 25.5 23.1136 25.0909L22.2273 24.2045C22.1591 24.1364 22.1591 24.0682 22.1591 24C22.1591 23.9318 22.2273 23.8636 22.2955 23.7955C22.7045 23.4545 23.0455 23.0455 23.25 22.6364C23.3182 22.5682 23.3182 22.5 23.3182 22.3636C23.3182 22.2273 23.3182 21.9546 23.3182 21.75C23.25 20.7273 22.7045 19.7046 21.9545 18.8864C21.4773 18.4091 20.7955 17.7955 19.9091 17.4546C19.7727 17.3864 19.5 17.3182 19.1591 17.3182C18.9545 17.3182 18.6818 17.3864 18.5455 17.4546C18.4091 17.5227 18.2045 17.6591 18 17.7955L17.1818 18.3409C17.1136 18.4091 17.0455 18.4091 16.9773 18.4091C16.9091 18.4091 16.8409 18.4091 16.8409 18.3409C16.5 18.1364 15.8182 17.5227 14.6591 15.75C13.5 13.9091 13.2273 12.9546 13.2273 12.5455C13.2273 12.4091 13.2955 12.3409 13.3636 12.2727L14.25 11.7273C14.4545 11.5909 14.5909 11.4546 14.7273 11.3864C15.2045 10.9773 15.2727 10.3636 15.2727 10.1591C15.3409 9.20455 15.0682 8.25001 14.8636 7.63637C14.4545 6.61364 13.7045 5.72728 12.8864 5.18182C12.6818 5.04546 12.4773 4.97728 12.3409 4.9091C12.2045 4.77273 12.0682 4.77273 12 4.77273H11.9318C8.59091 5.11364 6.75 9.75001 6.68182 9.95455C6.61364 10.0909 6.61364 10.2273 6.68182 10.2955C7.5 13.9773 9.54545 17.5227 10.0909 18.5455C10.0909 18.5455 10.0909 18.5455 10.0909 18.6136L10.2273 18.8182C10.9091 19.7727 13.2273 23.1818 16.1591 25.4318C16.2955 25.5 16.4318 25.5682 16.5682 25.5682C16.6364 25.5682 18.6818 25.5 20.5227 24.6136C20.5909 24.6136 20.5909 24.6136 20.6591 24.6136C20.7273 24.6136 20.7955 24.6136 20.8636 24.6818L21.9545 25.7727C21.9545 25.7727 21.9545 25.8409 22.0227 25.8409C22.0909 25.9773 22.2955 26.5227 21.9545 26.8636C20.5909 28.5682 17.1136 28.5682 14.7955 28.5682C11.6591 28.5682 8.59091 27.4773 6.13636 25.5C6.13636 25.5 6.06818 25.5 6.06818 25.4318C5.79545 25.2273 5.59091 25.0227 5.31818 24.75L5.25 24.6818C5.18182 24.6136 5.11364 24.6136 5.11364 24.5455C4.90909 24.3409 4.63636 24.0682 4.5 23.8636H4.56818C4.5 23.7955 4.43182 23.7273 4.36364 23.6591C4.15909 23.4545 4.02273 23.1818 3.75 22.8409L3.68182 22.7727C3.61364 22.7046 3.61364 22.6364 3.54545 22.5682C3.34091 22.2955 3.20455 22.0227 3 21.6818L2.93182 21.6136C2.86364 21.5455 2.86364 21.4773 2.79545 21.4091C2.72727 21.1364 2.59091 20.8636 2.45455 20.5227V20.4546C2.38636 20.3864 2.38636 20.3182 2.31818 20.1818C2.18182 19.9091 2.11364 19.5682 1.97727 19.2273C1.90909 19.0909 1.90909 18.9546 1.84091 18.8864C1.77273 18.6136 1.70455 18.3409 1.63636 18C1.56818 17.8636 1.56818 17.6591 1.5 17.5227C1.43182 17.25 1.43182 17.0455 1.36364 16.7046C1.36364 16.5 1.36364 16.2955 1.36364 16.0909C1.36364 15.8864 1.36364 15.6136 1.29545 15.3409C1.29545 15.0682 1.29545 14.8636 1.29545 14.6591C1.29545 14.4546 1.29545 14.1818 1.36364 13.9091C1.36364 13.7046 1.43182 13.5 1.43182 13.2273C1.43182 13.0227 1.5 12.8182 1.5 12.6136C1.56818 12.3409 1.56818 12.0682 1.63636 11.7955C1.63636 11.7273 1.63636 11.6591 1.70455 11.6591V11.5909C3.13636 6.27273 7.77273 2.11364 13.2273 1.43182C13.2955 1.43182 13.2955 1.43182 13.2955 1.43182C13.3636 1.43182 13.3636 1.43182 13.4318 1.43182C13.6364 1.36364 13.8409 1.36364 13.9773 1.36364C14.0455 1.36364 14.1136 1.36364 14.1818 1.36364H14.3864C14.5909 1.36364 14.7273 1.36364 14.9318 1.36364C15 1.36364 15 1.36364 15.0682 1.36364H15.1364C15.5455 1.36364 15.9545 1.36364 16.2955 1.43182C16.2955 1.43182 16.3636 1.43182 16.4318 1.43182C16.8409 1.50001 17.25 1.56819 17.7273 1.63637H17.7955H17.8636C18.2045 1.70455 18.6136 1.84091 18.9545 1.9091H19.0227C19.0909 1.9091 19.0909 1.9091 19.1591 1.9091C19.5682 2.04546 19.9773 2.18182 20.3182 2.31819H20.3864C20.7273 2.52273 21.1364 2.72728 21.4773 2.93182L21.6136 3.00001C25.9773 5.38637 28.7045 10.0227 28.7045 15C28.7045 16.9091 28.2955 18.75 27.5455 20.4546C27.4091 20.7955 27.2727 21.0682 27.1364 21.3409C27.0682 21.4773 27.0682 21.6818 27.0682 21.8182C27.1364 21.9545 27.2045 22.0909 27.4091 22.2273C27.4773 22.2955 27.6136 22.2955 27.6818 22.2955C27.9545 22.2955 28.1591 22.1591 28.2273 21.9545C28.4318 21.6136 28.5682 21.2727 28.7045 20.9318C29.5909 19.0909 30 17.1136 30 15C30 9.68182 27.1364 4.70455 22.5 2.04546ZM21.9545 22.1591C20.7955 23.9318 18.1364 24.2727 17.0455 24.4091C16.9773 24.4091 16.9091 24.4091 16.8409 24.3409C14.0455 22.0909 11.8636 18.8182 11.4545 18.2046C11.4545 18.2046 11.4545 18.2046 11.3864 18.1364C11.3864 18.1364 11.3864 18.0682 11.3182 18.0682C11.3182 18.0682 11.3182 18.0682 11.3182 18C11.3182 18 11.3182 18 11.3182 17.9318C10.7727 16.9773 8.86364 13.7046 8.04545 10.2955C8.04545 10.2273 8.04545 10.1591 8.04545 10.0909C8.18182 9.75001 9.61364 6.47728 11.7955 6.00001H11.8636C11.9318 6.00001 12 6.00001 12 6.06819C12.0682 6.06819 12.0682 6.13637 12.1364 6.13637C12.75 6.47728 13.2955 7.1591 13.5682 7.9091C13.8409 8.59092 13.9773 9.27273 13.9091 9.81819V9.95455C13.9091 10.1591 13.8409 10.2273 13.7727 10.2955C13.7045 10.3636 13.6364 10.4318 13.5 10.4318L13.4318 10.5L12.3409 11.1818C12.2045 11.25 12 11.4546 11.8636 11.7955C11.5909 12.6818 12.1364 14.1136 13.4318 16.2955C14.7955 18.4091 15.8864 19.5 16.7727 19.5682C16.8409 19.5682 16.8409 19.5682 16.9091 19.5682C17.1136 19.5682 17.3864 19.5 17.5227 19.3636L18.6136 18.6818C18.75 18.6136 18.8182 18.5455 18.8182 18.4773C18.8864 18.4091 18.9545 18.4091 19.0227 18.4091C19.0227 18.4091 19.0227 18.4091 19.0909 18.4091C19.1591 18.4091 19.2273 18.4091 19.3636 18.4773C19.8409 18.6818 20.3864 19.0227 20.9318 19.5682C21.4773 20.1818 21.8864 20.9318 21.9545 21.6818C21.9545 21.75 21.9545 21.8182 21.9545 21.8864C22.0227 22.0227 22.0227 22.0909 21.9545 22.1591Z" fill="#34404D"/>
</g>
<defs>
<clipPath id="clip03">
<rect width="30" height="30" fill="white"/>
</clipPath>
</defs>
</svg>
