<svg width="55" height="60" viewBox="0 0 55 60" fill="none" xmlns="http://www.w3.org/2000/svg">
<g clip-path="url(#clip0)">
<path fill-rule="evenodd" clip-rule="evenodd" d="M39.4528 0H7.81132V60H39.4528C42.1698 60 44.3208 57.7924 44.3208 55.1321V4.86792C44.3208 2.20755 42.1698 0 39.4528 0ZM14.434 30C14.434 30 14.4906 29.2075 14.6604 28.4151C14.8868 27.6792 14.9434 26.717 16.1321 26.1509C17.3208 25.5849 22.2453 23.3208 22.6415 23.0943C23.0377 22.8679 23.2641 22.6981 23.2641 22.3019V21.5094C23.2641 21.3396 23.2642 20.8302 23.0377 20.5472C22.7547 20.2642 22.3019 18.9057 22.2453 18.4528C22.2453 18.2264 22.0755 18 21.9057 17.9434C21.6226 17.8302 21.283 17.434 21.3396 16.8113C21.3396 16.1321 21.4528 15.283 21.7358 15.2264C21.9057 15.2264 21.9057 14.9434 21.7925 14.5472C21.7358 14.2075 21.5094 12.6226 21.6226 12C21.8491 10.9245 22.8679 9.11321 26.2075 9.11321C29.5472 9.11321 30.566 10.9245 30.7925 12C30.9057 12.6226 30.6792 14.2075 30.6226 14.5472C30.3962 15 30.3962 15.283 30.566 15.283C30.8491 15.3396 30.9623 16.1887 30.9623 16.8679C30.9623 17.4906 30.6792 17.8302 30.3962 18C30.2264 18.0566 30.0566 18.2264 30.0566 18.5094C30 18.9623 29.5472 20.2642 29.2642 20.6038C28.9811 20.8868 29.0377 21.3962 29.0377 21.566V22.4151C29.0377 22.8113 29.2642 22.9811 29.6604 23.2075C30.0566 23.434 34.9811 25.6415 36.1698 26.2642C37.3585 26.8302 37.4151 27.7925 37.6415 28.5283C37.8679 29.2642 37.8679 30.1132 37.8679 30.1132H14.434V30ZM0 4.86792V55.0755C0 57.7925 2.20755 59.9434 4.86792 59.9434H5.20755V0H4.86792C2.20755 0 0 2.20755 0 4.86792ZM50.8868 5.20755H46.9811V15.6226H54.7925V9.11321C54.7925 6.96226 53.0377 5.20755 50.8868 5.20755ZM46.9811 28.6981H54.7925V18.283H46.9811V28.6981ZM46.9811 41.717H54.7925V31.3019H46.9811V41.717ZM46.9811 54.7925H50.8868C53.0377 54.7925 54.7925 53.0377 54.7925 50.8868V44.3208H46.9811V54.7925Z" fill="#0F5EBA"/>
</g>
<defs>
<clipPath id="clip0">
<rect width="54.7925" height="60" fill="white"/>
</clipPath>
</defs>
</svg>
