<svg width="59" height="49" viewBox="0 0 59 49" fill="none" xmlns="http://www.w3.org/2000/svg">
<path fill-rule="evenodd" clip-rule="evenodd" d="M43.3594 8.89898L41.467 6.78547C40.0198 8.0647 39.0736 9.95573 39.0736 12.0692C39.0736 16.0182 42.2462 19.1884 46.1981 19.1884C50.15 19.1884 53.3226 16.0182 53.3226 12.0692C53.3226 8.12032 50.15 4.95006 46.1981 4.95006V7.78661C48.5359 7.78661 50.484 9.67764 50.484 12.0692C50.484 14.4052 48.5915 16.3519 46.1981 16.3519C43.8604 16.3519 41.9123 14.4608 41.9123 12.0692C41.9123 10.79 42.4689 9.67764 43.3594 8.89898ZM10.6868 8.50965C13.0245 8.50965 14.9726 6.61862 14.9726 4.22702C14.9726 1.89103 13.0802 -0.0556183 10.6868 -0.0556183C8.34906 -0.0556183 6.40094 1.83541 6.40094 4.22702C6.40094 6.61862 8.2934 8.50965 10.6868 8.50965ZM39.0736 22.748H53.267V21.3019H39.0736V22.748ZM16.3642 12.7923L32.0047 12.0692V9.23269C32.0047 9.23269 21.5962 9.23269 15.6406 9.23269H13.5255C13.5255 9.23269 12.4123 9.95573 10.6868 9.95573C8.90566 9.95573 7.84811 9.23269 7.84811 9.23269H5.73302C2.89434 9.23269 2.89434 12.0692 2.89434 12.0692L0 26.3076H2.83868L5.67736 14.9614V27.7537L4.95377 49H8.51604L10.6311 27.6981L12.8019 49H16.3642L15.6406 27.6981C15.6406 27.6981 15.6406 16.6856 15.6406 13.5709C15.6406 12.8479 16.3642 12.7923 16.3642 12.7923ZM50.484 29.1442H19.9264V30.5902H50.484V29.1442ZM54.7142 0.723042H19.9264V2.83655H54.7698C55.9387 2.83655 56.8849 3.78207 56.8849 4.95006V34.7616C56.8849 35.9296 55.9387 36.8751 54.7698 36.8751H19.9264V38.9887H31.4481L28.3868 42.1033L23.8783 46.6084C23.3217 47.1646 23.3217 48.0545 23.8783 48.6107C24.4349 49.1669 25.3255 49.1669 25.8821 48.6107L31.8934 42.6039L31.9491 42.5482V47.6652C31.9491 48.4438 32.5613 49.1112 33.3962 49.1112C34.1755 49.1112 34.8434 48.4994 34.8434 47.6652V42.5482L34.8991 42.6039L40.9104 48.6107C41.467 49.1669 42.3575 49.1669 42.9142 48.6107C43.4708 48.0545 43.4708 47.1646 42.9142 46.6084L38.4057 42.1033L35.4 39.0999H54.7142C57.0519 39.0999 59 37.2089 59 34.8173V4.95006C59 2.61408 57.1076 0.723042 54.7142 0.723042ZM19.9264 27.6981H47.6453V26.252H19.9264V27.6981ZM19.9264 33.3712H43.3594V31.9251H19.9264V33.3712Z" fill="#0F5EBA"/>
</svg>
