<svg width="45" height="45" viewBox="0 0 45 45" fill="none" xmlns="http://www.w3.org/2000/svg">
<path fill-rule="evenodd" clip-rule="evenodd" d="M19.6742 15.4947C20.1841 15.4947 20.4391 14.9816 20.1841 14.554C19.8867 13.9981 15.5099 6.42932 15.255 5.95895C15 5.53134 14.4476 5.53134 14.1926 5.95895C13.8102 6.60037 9.47592 14.1691 9.26346 14.554C9.0085 15.0243 9.34844 15.4947 9.81586 15.4947H13.2578C13.2578 22.5076 12.9603 29.0928 8.83853 33.9676C7.98867 33.4545 6.96884 33.1551 5.90652 33.1551C2.63456 33.1551 0 35.8063 0 39.0989C0 42.3916 2.63456 45 5.86402 45C9.09348 45 11.728 42.3488 11.728 39.0989C11.728 37.9872 11.4306 36.9609 10.8782 36.0629C15.8074 30.3329 16.1473 22.6786 16.1473 15.4947H19.6742ZM5.86402 42.0495C4.24929 42.0495 2.93201 40.7239 2.93201 39.0989C2.93201 37.474 4.24929 36.1484 5.86402 36.1484C7.47875 36.1484 8.79603 37.474 8.79603 39.0989C8.79603 40.7239 7.47875 42.0495 5.86402 42.0495ZM10.0283 18.1459C9.47592 17.59 8.54108 17.59 7.94618 18.1459L5.86402 20.2412L3.78187 18.1459C3.22946 17.59 2.29462 17.59 1.69972 18.1459C1.14731 18.7018 1.14731 19.6426 1.69972 20.2412L3.78187 22.3365L1.69972 24.4318C1.14731 24.9877 1.14731 25.9285 1.69972 26.5271C2.25212 27.083 3.18697 27.083 3.78187 26.5271L5.86402 24.4318L7.94618 26.5271C8.49858 27.083 9.43343 27.083 10.0283 26.5271C10.5807 25.9712 10.5807 25.0305 10.0283 24.4318L7.94618 22.3365L10.0283 20.2412C10.6232 19.6853 10.6232 18.7446 10.0283 18.1459ZM3.78187 5.5741L1.69972 7.6694C1.14731 8.2253 1.14731 9.16605 1.69972 9.7647C2.25212 10.3206 3.18697 10.3206 3.78187 9.7647L5.86402 7.6694L7.94618 9.7647C8.49858 10.3206 9.43343 10.3206 10.0283 9.7647C10.5807 9.20881 10.5807 8.26806 10.0283 7.6694L7.94618 5.5741L10.0283 3.47879C10.5807 2.9229 10.5807 1.98215 10.0283 1.38349C9.47592 0.827595 8.54108 0.827595 7.94618 1.38349L5.86402 3.47879L3.78187 1.38349C3.22946 0.827595 2.29462 0.827595 1.69972 1.38349C1.14731 1.98215 1.14731 2.9229 1.69972 3.47879L3.78187 5.5741ZM26.6856 18.1459C26.1331 17.59 25.1983 17.59 24.6034 18.1459L22.5212 20.2412L20.4391 18.1459C19.8867 17.59 18.9518 17.59 18.3569 18.1459C17.8045 18.7018 17.8045 19.6426 18.3569 20.2412L20.4391 22.3365L18.3569 24.4318C17.8045 24.9877 17.8045 25.9285 18.3569 26.5271C18.9093 27.083 19.8442 27.083 20.4391 26.5271L22.5212 24.4318L24.6034 26.5271C25.1558 27.083 26.0907 27.083 26.6856 26.5271C27.238 25.9712 27.238 25.0305 26.6856 24.4318L24.6034 22.3365L26.6856 20.2412C27.238 19.6853 27.238 18.7446 26.6856 18.1459ZM41.2606 39.0989L43.3428 37.0036C43.8952 36.4477 43.8952 35.507 43.3428 34.9083C42.7904 34.3524 41.8555 34.3524 41.2606 34.9083L39.1785 37.0036L37.0963 34.9083C36.5439 34.3524 35.6091 34.3524 35.0142 34.9083C34.4618 35.4642 34.4618 36.405 35.0142 37.0036L37.0963 39.0989L35.0142 41.1942C34.4618 41.7501 34.4618 42.6909 35.0142 43.2896C35.5666 43.8454 36.5014 43.8454 37.0963 43.2896L39.1785 41.1942L41.2606 43.2896C41.813 43.8454 42.7479 43.8454 43.3428 43.2896C43.8952 42.7337 43.8952 41.7929 43.3428 41.1942L41.2606 39.0989ZM33.272 22.3365C33.272 25.5864 35.9065 28.2376 39.136 28.2376C42.3654 28.2376 45 25.5864 45 22.3365C45 19.557 43.1303 17.2479 40.5807 16.6065C40.3683 11.0048 37.6912 5.87343 29.3201 4.4623V0.613788C29.3201 0.100653 28.8102 -0.155915 28.3853 0.100653C27.8329 0.399982 20.3116 4.80439 19.8442 5.06096C19.4193 5.31753 19.4193 5.87343 19.8442 6.12999C20.4816 6.51485 28.0028 10.8765 28.3853 11.0903C28.8527 11.3469 29.3201 11.0048 29.3201 10.5344V7.41283C36.7564 8.78119 37.6062 13.2711 37.6912 16.6065C35.1416 17.2907 33.272 19.5998 33.272 22.3365ZM39.1785 19.386C40.7932 19.386 42.1105 20.7116 42.1105 22.3365C42.1105 23.9614 40.7932 25.287 39.1785 25.287C37.5637 25.287 36.2465 23.9614 36.2465 22.3365C36.2465 20.7116 37.5637 19.386 39.1785 19.386Z" fill="#0F5EBA"/>
</svg>
